<svg width="15" height="16" viewBox="0 0 15 16" fill="none" xmlns="http://www.w3.org/2000/svg">
<path d="M12.0967 3.43475C10.8691 2.20428 9.23438 1.52753 7.49707 1.52753C3.91113 1.52753 0.993164 4.4455 0.993164 8.03143C0.993164 9.17694 1.29199 10.2961 1.86035 11.2834L0.9375 14.6525L4.38574 13.7473C5.33496 14.2658 6.4043 14.5383 7.49414 14.5383H7.49707C11.0801 14.5383 14.0625 11.6203 14.0625 8.03436C14.0625 6.29706 13.3242 4.66522 12.0967 3.43475ZM7.49707 13.4426C6.52441 13.4426 5.57227 13.1818 4.74316 12.6896L4.54688 12.5724L2.50195 13.1086L3.04688 11.1135L2.91797 10.9084C2.37598 10.0471 2.0918 9.05389 2.0918 8.03143C2.0918 5.05194 4.51758 2.62616 7.5 2.62616C8.94434 2.62616 10.3008 3.18866 11.3203 4.21112C12.3398 5.23358 12.9668 6.59003 12.9639 8.03436C12.9639 11.0168 10.4766 13.4426 7.49707 13.4426ZM10.4619 9.39374C10.3008 9.31171 9.50098 8.91913 9.35156 8.86639C9.20215 8.81073 9.09375 8.78436 8.98535 8.94842C8.87695 9.11249 8.56641 9.47577 8.46973 9.5871C8.37598 9.6955 8.2793 9.71014 8.11816 9.62811C7.16309 9.15057 6.53613 8.77557 5.90625 7.69452C5.73926 7.40741 6.07324 7.42792 6.38379 6.80682C6.43652 6.69843 6.41016 6.60468 6.36914 6.52264C6.32812 6.44061 6.00293 5.64081 5.86816 5.31561C5.73633 4.99921 5.60156 5.04315 5.50195 5.03729C5.4082 5.03143 5.2998 5.03143 5.19141 5.03143C5.08301 5.03143 4.90723 5.07245 4.75781 5.23358C4.6084 5.39764 4.18945 5.79022 4.18945 6.59003C4.18945 7.38983 4.77246 8.16327 4.85156 8.27167C4.93359 8.38007 5.99707 10.0207 7.62891 10.7267C8.66016 11.1721 9.06445 11.2101 9.58008 11.134C9.89355 11.0871 10.541 10.7414 10.6758 10.3605C10.8105 9.97968 10.8105 9.65448 10.7695 9.5871C10.7314 9.51385 10.623 9.47284 10.4619 9.39374Z" fill="white"/>
</svg>
